<svg xmlns="http://www.w3.org/2000/svg" viewBox="0 0 400 300" fill="none"><polygon points="40,230 40,192 57.8,164 75.6,192 93.3,149 111.1,192 128.9,134 146.7,192 164.4,119 182.2,192 200.0,104 217.8,192 235.6,119 253.3,192 271.1,134 288.9,192 306.7,149 324.4,192 342.2,164 360.0,192 360,230" stroke="#C99A2E" stroke-width="3" stroke-linejoin="round"/><circle cx="57.8" cy="155" r="4.5" fill="#C99A2E"/><circle cx="93.3" cy="140" r="4.5" fill="#C99A2E"/><circle cx="128.9" cy="125" r="4.5" fill="#C99A2E"/><circle cx="164.4" cy="110" r="4.5" fill="#C99A2E"/><circle cx="200.0" cy="95" r="4.5" fill="#C99A2E"/><circle cx="235.6" cy="110" r="4.5" fill="#C99A2E"/><circle cx="271.1" cy="125" r="4.5" fill="#C99A2E"/><circle cx="306.7" cy="140" r="4.5" fill="#C99A2E"/><circle cx="342.2" cy="155" r="4.5" fill="#C99A2E"/><rect x="40" y="230" width="320" height="32" fill="#9E1F2A" stroke="#C99A2E" stroke-width="3"/><path d="M54 246l9 -9l9 9l-9 9z" fill="#C99A2E"/><path d="M86 246l9 -9l9 9l-9 9z" fill="#C99A2E"/><path d="M118 246l9 -9l9 9l-9 9z" fill="#C99A2E"/><path d="M150 246l9 -9l9 9l-9 9z" fill="#C99A2E"/><path d="M182 246l9 -9l9 9l-9 9z" fill="#C99A2E"/><path d="M214 246l9 -9l9 9l-9 9z" fill="#C99A2E"/><path d="M246 246l9 -9l9 9l-9 9z" fill="#C99A2E"/><path d="M278 246l9 -9l9 9l-9 9z" fill="#C99A2E"/><path d="M310 246l9 -9l9 9l-9 9z" fill="#C99A2E"/><path d="M342 246l9 -9l9 9l-9 9z" fill="#C99A2E"/><path d="M60 278h280" stroke="#C99A2E" stroke-width="2" stroke-dasharray="2 8" stroke-linecap="round"/></svg>